<svg id="Capa_1" enable-background="new 0 0 512 512" height="512" viewBox="0 0 512 512" width="512" xmlns="http://www.w3.org/2000/svg"><g><circle cx="256" cy="256" fill="#ff633d" r="256"/><path d="m297.725 188.113-83.134-83.134-109.737 109.737 153.209 153.209-77.063 77.064 66.87 66.87c2.701.084 5.409.141 8.13.141 141.385 0 256-114.615 256-256 0-.644-.02-1.284-.024-1.927l-140.106-140.106z" fill="#ee2600"/><path d="m138.972 193.149h20v131.23h-20z" fill="#d4e4e4" transform="matrix(.707 -.707 .707 .707 -139.341 181.13)"/><path d="m201.86 197.738h20v109.19h-20z" fill="#d4e4e4" transform="matrix(.962 -.274 .274 .962 -60.936 67.565)"/><path d="m353.028 193.149h20v131.23h-20z" fill="#c0d7d7" transform="matrix(-.707 -.707 .707 -.707 436.753 698.438)"/><path d="m290.14 197.738h20v109.19h-20z" fill="#c0d7d7" transform="matrix(-.962 -.274 .274 -.962 519.823 577.133)"/><path d="m256 67.013c-88.642 0-160.5 68.243-160.5 152.426 0 0 16.6-11.465 53.5-11.465 38.985 0 53.5 11.464 53.5 11.465 0 0 .009-.006.011-.007-.011.006 53.489-152.419 53.489-152.419z" fill="#5688e1"/><path d="m256 67.013s-60.382 30.731-53.489 152.418c.234-.16 16.851-11.457 53.489-11.457l18.175-58.912z" fill="#5f97fb"/><path d="m256 67.013c88.642 0 160.5 68.243 160.5 152.426 0 0-16.6-11.465-53.5-11.465-38.985 0-53.5 11.464-53.5 11.465 0 0-.009-.006-.011-.007.011.006-53.489-152.419-53.489-152.419z" fill="#4779b5"/><path d="m256 67.013s60.382 30.731 53.489 152.418c-.234-.16-16.851-11.457-53.489-11.457z" fill="#5688e1"/><path d="m181 294.987v150h75l20.033-107.465-35.428-42.535z" fill="#e8a354"/><path d="m331 294.987h-59.605l-15.395 43.652v106.348h75z" fill="#e6973e"/><path d="m240.605 294.987v53.52l15.395-9.868 6.612-23.027-6.612-20.625z" fill="#f7e46f"/><path d="m271.395 294.987h-15.395v43.652l15.395 9.868z" fill="#f5db48"/></g></svg>