<svg id="Capa_1" enable-background="new 0 0 512.155 512.155" height="512" viewBox="0 0 512.155 512.155" width="512" xmlns="http://www.w3.org/2000/svg"><g><g><path d="m255.766 102.938c-53.256 0-96.583 43.327-96.583 96.583s43.327 96.583 96.583 96.583c53.255 0 96.583-43.327 96.583-96.583s-43.327-96.583-96.583-96.583zm-13.031 144.055-43.669-43.668 21.213-21.213 22.456 22.455 48.518-48.518 21.213 21.213z"/><path d="m65.077 0v284.89l191.13 120.54 190.87-117.22v-288.21zm190.689 326.104c-69.798 0-126.583-56.785-126.583-126.583s56.785-126.583 126.583-126.583 126.583 56.785 126.583 126.583-56.784 126.583-126.583 126.583z"/></g><g><path d="m255.969 444.776-255.892-161.391v228.77h512v-224.657z"/><g><path d="m35.077 177.845-35 26.923v39.276l35 22.074z"/><path d="m477.077 177.845v92.098l35-21.494v-43.681z"/></g></g></g></svg>